<svg data-prefix="fas" data-icon="search" class="svg-inline--fa fa-search fa-w-16" xmlns="http://www.w3.org/2000/svg" viewBox="0 0 512 512"><path fill="#fff" d="M69.3 505l99.7-99.7c4.5-4.5 7-10.6 7-17V372c35.3 27.6 79.7 44 128 44 114.9 0 208-93.1 208-208S418.9 0 304 0 96 93.1 96 208c0 48.3 16.4 92.7 44 128h-16.3c-6.4 0-12.5 2.5-17 7L7 442.7c-9.4 9.4-9.4 24.6 0 33.9l28.3 28.3c9.4 9.4 24.6 9.4 34 .1zM176 208c0-70.7 57.2-128 128-128 70.7 0 128 57.2 128 128 0 70.7-57.2 128-128 128-70.7 0-128-57.2-128-128z"/></svg>